<svg height="750.26444" viewBox="0 0 1021.75928 750.26444" width="1021.75928" xmlns="http://www.w3.org/2000/svg"><path d="m268.227 74.86778-53.38806 87.26129a65.9906 65.9906 0 0 1 -68.85449 112.54077l-56.76545 92.7815 547.63458 335.05286 179.00793-292.58356z" fill="#f2f2f2" transform="translate(-89.12036 -74.86778)"/><circle cx="97.75928" cy="142.59338" fill="#f2f2f2" r="43"/><ellipse cx="496.75928" cy="708.59338" fill="#f2f2f2" rx="152" ry="10"/><ellipse cx="239.75928" cy="745.59338" fill="#f2f2f2" rx="71" ry="4.67105"/><ellipse cx="798.75928" cy="685.59338" fill="#f2f2f2" rx="152" ry="10"/><path d="m6.75928 669.59338h1015" fill="none" stroke="#2f2e41" stroke-miterlimit="10" stroke-width="2"/><path d="m183.25928 176.09338h730v493h-730z" fill="#3f3d56"/><path d="m183.25928 212.15244h730" fill="none" stroke="#2f2e41" stroke-miterlimit="10" stroke-width="2"/><circle cx="205.75928" cy="194.09338" fill="#6c63ff" r="9"/><circle cx="232.75928" cy="194.59338" fill="#6c63ff" r="9"/><circle cx="259.75928" cy="195.09338" fill="#6c63ff" r="9"/><path d="m228.75928 245.59338h616v120h-616z" fill="#6c63ff" opacity=".3"/><path d="m228.75928 365.59338 616-120" fill="none" opacity=".3" stroke="#6c63ff" stroke-miterlimit="10" stroke-width="2"/><path d="m844.75928 365.59338-616-120" fill="none" opacity=".3" stroke="#6c63ff" stroke-miterlimit="10" stroke-width="2"/><path d="m228.75928 441.59338h147v193h-147z" fill="#6c63ff" opacity=".3"/><path d="m697.75928 441.59338h147v193h-147z" fill="#6c63ff" opacity=".3"/><path d="m463.25928 441.59338h147v193h-147z" fill="#6c63ff" opacity=".3"/><g fill="none" stroke-miterlimit="10" stroke-width="2"><path d="m228.75928 441.59338 147 193" opacity=".3" stroke="#6c63ff"/><path d="m375.75928 441.59338-147 193" opacity=".3" stroke="#6c63ff"/><path d="m463.75928 441.59338 147 193" opacity=".3" stroke="#6c63ff"/><path d="m610.75928 441.59338-147 193" opacity=".3" stroke="#6c63ff"/><path d="m697.75928 441.59338 147 193" opacity=".3" stroke="#6c63ff"/><path d="m844.75928 441.59338-147 193" opacity=".3" stroke="#6c63ff"/></g><path d="m310.75928 245.59338h616v120h-616z" fill="#6c63ff"/><path d="m725.75928 487.59338h147v193h-147z" fill="#6c63ff"/><path d="m747.25928 513.09338h104v12h-104z" fill="#3f3d56"/><path d="m747.25928 539.09338h104v12h-104z" fill="#3f3d56"/><path d="m747.25928 565.09338h104v12h-104z" fill="#3f3d56"/><path d="m747.25928 591.09338h104v12h-104z" fill="#3f3d56"/><path d="m747.25928 617.09338h104v12h-104z" fill="#3f3d56"/><path d="m747.25928 643.09338h104v12h-104z" fill="#3f3d56"/><path d="m264.75928 467.59338h147v193h-147z" fill="#6c63ff"/><path d="m286.25928 532.09338h104v12h-104z" fill="#3f3d56"/><path d="m286.25928 558.09338h104v12h-104z" fill="#3f3d56"/><path d="m286.25928 584.09338h104v12h-104z" fill="#3f3d56"/><path d="m737.71351 390.83022c0 22.46856-13.35644 30.31375-29.83387 30.31375q-.57257 0-1.14332-.01273c-.76344-.01636-1.51961-.05271-2.26668-.10361-14.87057-1.05244-26.42387-9.30115-26.42387-30.19741 0-21.62514 27.63446-48.91242 29.71026-50.93189l.00364-.00363c.08-.07816.12-.11634.12-.11634s29.83384 28.5833 29.83384 51.05186z" fill="#3f3d56" transform="translate(-89.12036 -74.86778)"/><path d="m706.79266 417.70669 10.91162-15.24683-10.93889 16.92094-.02907 1.75044c-.76344-.01636-1.51961-.05271-2.26668-.10361l1.17607-22.47946-.0091-.17451.02-.03271.11088-2.12307-10.96619-16.96276 11.0007 15.37045.02548.45079.88883-16.98456-9.38839-17.52807 9.50291 14.547.9252-35.21244.00364-.12v.11634l-.1545 27.76715 9.34661-11.008-9.38478 13.40016-.2472 15.20685 8.72677-14.59429-8.76312 16.83189-.13814 8.4541 12.66934-20.31277-12.71665 23.2629z" fill="#6c63ff" transform="translate(-89.12036 -74.86778)"/><circle cx="82.23112" cy="339.23907" fill="#2f2e41" r="23.4327"/><path d="m159.014 429.707s.35279 14.46431-1.05837 14.8171 19.40335 5.9974 19.40335 5.9974l2.11673-19.75614z" fill="#a0616a" transform="translate(-89.12036 -74.86778)"/><path d="m323.41333 553.1829s15.52268 0 15.87547-1.76394 3.52788 14.46431 3.52788 14.46431l-6.35019 2.11673s-11.9948-5.29182-13.05316-5.29182 0-9.52528 0-9.52528z" fill="#a0616a" transform="translate(-89.12036 -74.86778)"/><path d="m340.34716 559.53309s-2.8223-9.52529-6.35018-9.87807c0 0 11.99479-7.76135 12.34758-10.23086s4.58625-8.81971 6.35019-6.703 1.76394 35.63161-1.41115 39.15949-17.2866-4.95865-17.2866-4.95865 8.81968-3.861 6.35016-7.38891z" fill="#2f2e41" transform="translate(-89.12036 -74.86778)"/><path d="m59.663 619.783-2.822 15.17 13.053 2.117v-17.287z" fill="#a0616a"/><path d="m148.78317 708.05692s-2.11673-6.703-3.52788-5.64461-3.52788 7.76134-3.1751 9.52528 2.82231 15.52268 1.76394 17.9922 5.29183 15.16989 13.406 14.11152 7.40855-8.11412 7.40855-8.11412l-2.82231-10.93644-1.05837-17.28662s-9.17253-1.41113-11.99483.35279z" fill="#2f2e41" transform="translate(-89.12036 -74.86778)"/><circle cx="74.03403" cy="314.57634" fill="#2f2e41" r="9.69629"/><path d="m150.226 384.192a9.69729 9.69729 0 0 1 8.68626-9.64386 9.80238 9.80238 0 0 0 -1.01-.05243 9.69629 9.69629 0 0 0 0 19.39258 9.8052 9.8052 0 0 0 1.01-.05242 9.69729 9.69729 0 0 1 -8.68626-9.64387z" fill="#2f2e41" transform="translate(-89.12036 -74.86778)"/><circle cx="82.24126" cy="349.90021" fill="#a0616a" r="14.8171"/><path d="m142.08019 527.78215s.70558 17.63941 3.52789 26.8119 12.99739 74.49668 10.88067 79.43571-12.9974 59.56284-10.52789 62.73794 14.11153 2.11672 14.11153 2.11672l15.81971-66.26581s-3.11933-73.08552 22.987-74.84947 68.7937-2.8223 68.7937-2.8223 27.51748 8.11413 39.86507 7.76134 19.40335 3.17509 19.40335 3.17509l2.11673-14.46431-54.68217-11.9948s-50.09593-17.28662-77.61341-12.70038-54.68218 1.05837-54.68218 1.05837z" fill="#2f2e41" transform="translate(-89.12036 -74.86778)"/><path d="m161.83633 439.93788s-4.23346-2.46951-5.29182 0-8.46692 4.58625-11.28922 2.46952-9.87807.70558-9.87807.70558l-7.76134 22.93123s3.88067 19.75614 7.40855 30.69258 4.939 33.51487 3.52788 35.6316 28.22306 10.58365 42.68737 5.29183 17.63941-11.28922 17.63941-11.28922-15.87547-22.57844-10.58364-33.16209 1.05836-22.57844 1.05836-22.57844l2.11673-11.9948-11.9948-6.703s-.70557-6.35018-3.52788-6.35018-14.11153-5.64461-14.11153-5.64461z" fill="#d0cde1" transform="translate(-89.12036 -74.86778)"/><path d="m186.17872 458.98845h5.29182a11.8432 11.8432 0 0 1 3.52788 10.93643c-1.41115 6.703-7.77535 28.92537-7.77535 28.92537l-5.27781-13.75548z" fill="#d0cde1" transform="translate(-89.12036 -74.86778)"/><path d="m201.37468 515.64429s10.55758 11.43228 2.79624 17.42968-9.67384-13.75874-9.67384-13.75874z" fill="#a0616a" transform="translate(-89.12036 -74.86778)"/><path d="m186.17872 491.79775 2.46952 9.87807 4.23345 7.76134s14.46432 9.52528 14.46432 13.05316c0 0-6.35019-8.11412-14.46432 0l-7.23215-17.463z" fill="#d0cde1" transform="translate(-89.12036 -74.86778)"/><ellipse cx="84.95699" cy="334.27072" fill="#2f2e41" rx="16.16048" ry="9.69629"/><path d="m142.08019 409.95089s11.28923-6.35019 15.87547-1.76394-13.75874 11.642-13.75874 11.642z" fill="#a0616a" transform="translate(-89.12036 -74.86778)"/><path d="m137.84673 444.87692-2.46951-1.76394s-2.82231-4.23346-5.29183-2.82231-16.93383-5.29182-16.93383-5.29182 5.29182 2.46952 5.29182-1.76394.70558-3.52788 4.23346-3.52788 3.52788 1.76394 4.939-.70558.70557-3.88067 3.17509-2.46952 5.29182.35279 5.9974-.70557 13.406-2.82231 13.406-2.82231-4.939-14.46432-5.9974-15.52268-28.223 10.93643-28.223 10.93643-34.22046 9.52529-25.40075 20.46172 40.57058 27.51748 40.57058 27.51748z" fill="#d0cde1" transform="translate(-89.12036 -74.86778)"/><path d="m430.75928 515.59338h147v193h-147z" fill="#6c63ff"/><path d="m471.25928 546.09338h66v66h-66z" fill="#3f3d56"/><path d="m446.25928 626.09338h116v8h-116z" fill="#3f3d56"/><path d="m446.25928 648.09338h116v8h-116z" fill="#3f3d56"/><path d="m446.25928 670.09338h116v8h-116z" fill="#3f3d56"/><path d="m351.75293 799.89447c0 14.58087-8.6676 19.672-19.36056 19.672q-.37157 0-.742-.00826c-.49543-.01062-.98615-.0342-1.471-.06724-9.6502-.683-17.14766-6.03594-17.14766-19.59647 0-14.03354 17.93326-31.7415 19.28034-33.052l.00236-.00236c.05191-.05072.07786-.07549.07786-.07549s19.36066 18.54895 19.36066 33.12982z" fill="#6c63ff" transform="translate(-89.12036 -74.86778)"/><path d="m331.687 817.33584 7.08105-9.89437-7.09875 10.98077-.01886 1.13594c-.49543-.01062-.98615-.0342-1.471-.06724l.7632-14.58794-.0059-.11325.013-.02123.07195-1.37775-7.11645-11.00791 7.13886 9.97459.01653.29253.5768-11.02205-6.09255-11.37476 6.16687 9.44024.6004-22.851.00236-.07785v.07549l-.10026 18.01937 6.06544-7.14358-6.0902 8.69591-.16043 9.86842 5.6632-9.4709-5.68678 10.923-.08965 5.48625 8.22171-13.18188-8.25238 15.09636z" fill="#3f3d56" transform="translate(-89.12036 -74.86778)"/></svg>